<?xml version="1.0" encoding="UTF-8"?>
<!-- Generator: Adobe Illustrator 16.0.0, SVG Export Plug-In . SVG Version: 6.00 Build 0)  -->
<!DOCTYPE svg PUBLIC "-//W3C//DTD SVG 1.1//EN" "http://www.w3.org/Graphics/SVG/1.1/DTD/svg11.dtd">
<svg version="1.1" id="Ebene_1" xmlns:dc="http://purl.org/dc/elements/1.1/" xmlns:cc="http://creativecommons.org/ns#" xmlns:rdf="http://www.w3.org/1999/02/22-rdf-syntax-ns#" xmlns:svg="http://www.w3.org/2000/svg" xmlns:sodipodi="http://sodipodi.sourceforge.net/DTD/sodipodi-0.dtd" xmlns:inkscape="http://www.inkscape.org/namespaces/inkscape" sodipodi:docname="IServ_Logo_RGB_clean.svg" inkscape:version="0.91 r13725" xmlns="http://www.w3.org/2000/svg" xmlns:xlink="http://www.w3.org/1999/xlink" x="0px" y="0px" width="276.885px" height="87.575px" viewBox="0 0 276.885 87.575" enable-background="new 0 0 276.885 87.575" xml:space="preserve">
<g>
	<path fill="#244C7F" d="M120.677,50.819c-1.627-0.104-3.558-0.408-5.19-0.511V6.971l5.19-0.509V1.073h-20.344v5.388   c1.729,0.102,3.659,0.407,5.184,0.509v43.337l-5.184,0.511v5.188h20.344V50.819z M131.157,54.887   c0.81,0.305,5.388,2.135,12.813,2.135c11.598,0,20.757-5.285,20.757-17.396c0-17.596-25.538-14.344-25.538-25.33   c0-4.577,3.359-6.814,10.175-6.814c5.495,0,10.684,1.02,10.684,1.02c0.204-2.142,0.403-4.38,0.811-6.718   c-0.811-0.204-5.184-1.525-12.105-1.525c-10.072,0-19.126,3.457-19.126,15.971c0,16.886,25.334,14.144,25.334,25.231   c0,6.51-7.631,7.631-12.106,7.631c-4.378,0-11.8-2.035-11.8-2.035L131.157,54.887z M187.92,15.111   c-10.576,0-17.901,7.326-17.901,20.853c0,13.534,7.626,21.263,17.392,21.058c9.768-0.198,15.466-3.457,15.466-3.457l-0.714-4.984   c-1.422,0.408-6.611,1.728-11.596,1.728c-6.408,0-10.985-4.78-10.985-13.12l24.314,0.509c0.102-0.311,0.606-1.121,0.708-1.325   c0.103-0.913,0.204-1.932,0.204-2.951C204.807,21.213,198.502,15.111,187.92,15.111 M188.226,21.213   c3.762,0,7.223,3.358,7.223,10.99h-15.664C179.785,21.62,184.668,21.213,188.226,21.213 M233.549,14.093   c-6.311,0.509-12.314,5.393-12.314,5.393l-2.641-4.375c-2.136,0.204-4.072,0.611-6.412,0.81v40.085h9.563V24.47   c0,0,6.718-1.63,10.582-1.63L233.549,14.093z M236.699,15.825c4.68,13.427,9.563,26.757,14.242,40.182h11.087l14.043-40.182H266.1   c-2.951,9.563-5.999,19.834-8.854,29.402h-1.729l-8.95-29.402H236.699z"/>
	<path fill="#244C7F" d="M62.664,78.016c0,5.005,4.247,9.252,9.704,9.252c5.004,0,9.398-4.247,9.398-9.252   c0-5.154-4.395-9.396-9.398-9.396C66.911,68.62,62.664,72.866,62.664,78.016"/>
	<path fill="#7594C0" d="M31.74,78.016c0,5.005,4.247,9.252,9.702,9.252c5.006,0,9.397-4.247,9.397-9.252   c0-5.154-4.392-9.396-9.397-9.396C35.987,68.62,31.74,72.866,31.74,78.016"/>
	<path fill="#FABB00" d="M0.813,78.016c0,5.005,4.243,9.252,9.704,9.252c4.999,0,9.397-4.247,9.397-9.252   c0-5.154-4.398-9.396-9.397-9.396C5.056,68.62,0.813,72.866,0.813,78.016"/>
	<path fill="#244C7F" d="M273.566,78.016c0-5.078-4.276-9.256-9.193-9.379V68.62H103.037v0.022c-5.33,0.138-9.442,4.306-9.442,9.374   c0,4.922,4.112,9.092,9.442,9.223v0.078h161.34v-0.072C269.29,87.126,273.566,82.954,273.566,78.016"/>
</g>
</svg>